<svg xmlns="http://www.w3.org/2000/svg" viewBox="0 0 800 1100" role="img" aria-labelledby="title desc">
  <title id="title">Driving visual archive placeholder</title>
  <desc id="desc">Moody abstract night driving scene seen through rain and glass.</desc>
  <defs>
    <linearGradient id="night" x1="0" y1="0" x2="1" y2="1">
      <stop offset="0" stop-color="#0f1110"/>
      <stop offset=".62" stop-color="#2b2d29"/>
      <stop offset="1" stop-color="#6d5d4d"/>
    </linearGradient>
    <radialGradient id="light" cx=".72" cy=".36" r=".48">
      <stop offset="0" stop-color="#f4de9a" stop-opacity=".86"/>
      <stop offset=".22" stop-color="#b8d8ce" stop-opacity=".34"/>
      <stop offset="1" stop-color="#0f1110" stop-opacity="0"/>
    </radialGradient>
  </defs>
  <rect width="800" height="1100" fill="url(#night)"/>
  <rect width="800" height="1100" fill="url(#light)"/>
  <path d="M86 240c128 42 218 64 368 28 108-26 186-12 276 34" fill="none" stroke="#f0eee7" stroke-opacity=".18" stroke-width="4"/>
  <path d="M132 838c84-156 172-226 270-226s186 74 274 226" fill="none" stroke="#f0eee7" stroke-opacity=".32" stroke-width="18" stroke-linecap="round"/>
  <path d="M222 882h360" stroke="#f0eee7" stroke-opacity=".2" stroke-width="42" stroke-linecap="round"/>
  <g opacity=".76">
    <circle cx="182" cy="292" r="8" fill="#e7d899"/>
    <circle cx="238" cy="250" r="5" fill="#9bd4cf"/>
    <circle cx="614" cy="322" r="11" fill="#e7d899"/>
    <circle cx="676" cy="272" r="7" fill="#b68cc9"/>
    <circle cx="706" cy="368" r="6" fill="#9bd4cf"/>
  </g>
  <g stroke="#f0eee7" stroke-opacity=".28" stroke-linecap="round">
    <path d="M92 84l34 252"/>
    <path d="M226 42l18 340"/>
    <path d="M490 54l-22 360"/>
    <path d="M690 112l-52 430"/>
  </g>
  <g fill="#f0eee7" opacity=".38">
    <circle cx="116" cy="176" r="3"/>
    <circle cx="172" cy="404" r="2"/>
    <circle cx="304" cy="128" r="3"/>
    <circle cx="548" cy="206" r="2.5"/>
    <circle cx="716" cy="444" r="3"/>
    <circle cx="632" cy="128" r="2"/>
  </g>
  <text x="68" y="1012" fill="#f0eee7" fill-opacity=".58" font-family="ui-monospace, monospace" font-size="22" letter-spacing="4">VISUAL ARCHIVE / DRIVE</text>
</svg>
